<mxfile host="Electron" modified="2023-11-12T16:55:01.213Z" agent="Mozilla/5.0 (Windows NT 10.0; Win64; x64) AppleWebKit/537.36 (KHTML, like Gecko) draw.io/22.0.3 Chrome/114.0.5735.289 Electron/25.8.4 Safari/537.36" etag="pbaXqEgJzslYK8ff6E4q" version="22.0.3" type="device" pages="2">
  <diagram id="C5RBs43oDa-KdzZeNtuy" name="Page-1">
    <mxGraphModel dx="1711" dy="1171" grid="1" gridSize="10" guides="1" tooltips="1" connect="1" arrows="1" fold="1" page="1" pageScale="1" pageWidth="827" pageHeight="1169" math="0" shadow="0">
      <root>
        <mxCell id="WIyWlLk6GJQsqaUBKTNV-0" />
        <mxCell id="WIyWlLk6GJQsqaUBKTNV-1" parent="WIyWlLk6GJQsqaUBKTNV-0" />
        <mxCell id="RL4k7RVcTYbIu_MRNfqW-1" style="edgeStyle=orthogonalEdgeStyle;rounded=0;orthogonalLoop=1;jettySize=auto;html=1;entryX=1;entryY=0.5;entryDx=0;entryDy=0;" edge="1" parent="WIyWlLk6GJQsqaUBKTNV-1" source="RL4k7RVcTYbIu_MRNfqW-2" target="RL4k7RVcTYbIu_MRNfqW-19">
          <mxGeometry relative="1" as="geometry">
            <mxPoint x="320" y="230" as="targetPoint" />
          </mxGeometry>
        </mxCell>
        <mxCell id="RL4k7RVcTYbIu_MRNfqW-2" value="a,b,c" style="shape=parallelogram;perimeter=parallelogramPerimeter;whiteSpace=wrap;html=1;fixedSize=1;" vertex="1" parent="WIyWlLk6GJQsqaUBKTNV-1">
          <mxGeometry x="370" y="200" width="120" height="60" as="geometry" />
        </mxCell>
        <mxCell id="RL4k7RVcTYbIu_MRNfqW-3" value="False" style="edgeStyle=orthogonalEdgeStyle;rounded=0;orthogonalLoop=1;jettySize=auto;html=1;" edge="1" parent="WIyWlLk6GJQsqaUBKTNV-1" source="RL4k7RVcTYbIu_MRNfqW-5" target="RL4k7RVcTYbIu_MRNfqW-10">
          <mxGeometry relative="1" as="geometry" />
        </mxCell>
        <mxCell id="RL4k7RVcTYbIu_MRNfqW-4" value="True" style="edgeStyle=orthogonalEdgeStyle;rounded=0;orthogonalLoop=1;jettySize=auto;html=1;" edge="1" parent="WIyWlLk6GJQsqaUBKTNV-1" source="RL4k7RVcTYbIu_MRNfqW-5" target="RL4k7RVcTYbIu_MRNfqW-11">
          <mxGeometry relative="1" as="geometry" />
        </mxCell>
        <mxCell id="RL4k7RVcTYbIu_MRNfqW-5" value="delta&amp;lt;0" style="rhombus;whiteSpace=wrap;html=1;" vertex="1" parent="WIyWlLk6GJQsqaUBKTNV-1">
          <mxGeometry x="60" y="340" width="120" height="110" as="geometry" />
        </mxCell>
        <mxCell id="RL4k7RVcTYbIu_MRNfqW-6" style="edgeStyle=orthogonalEdgeStyle;rounded=0;orthogonalLoop=1;jettySize=auto;html=1;exitX=0.558;exitY=1.025;exitDx=0;exitDy=0;exitPerimeter=0;" edge="1" parent="WIyWlLk6GJQsqaUBKTNV-1" source="RL4k7RVcTYbIu_MRNfqW-19" target="RL4k7RVcTYbIu_MRNfqW-5">
          <mxGeometry relative="1" as="geometry">
            <mxPoint x="270" y="260" as="sourcePoint" />
          </mxGeometry>
        </mxCell>
        <mxCell id="RL4k7RVcTYbIu_MRNfqW-9" value="True" style="edgeStyle=orthogonalEdgeStyle;rounded=0;orthogonalLoop=1;jettySize=auto;html=1;" edge="1" parent="WIyWlLk6GJQsqaUBKTNV-1" source="RL4k7RVcTYbIu_MRNfqW-10" target="RL4k7RVcTYbIu_MRNfqW-12">
          <mxGeometry relative="1" as="geometry" />
        </mxCell>
        <mxCell id="RL4k7RVcTYbIu_MRNfqW-22" style="edgeStyle=orthogonalEdgeStyle;rounded=0;orthogonalLoop=1;jettySize=auto;html=1;" edge="1" parent="WIyWlLk6GJQsqaUBKTNV-1" source="RL4k7RVcTYbIu_MRNfqW-10" target="RL4k7RVcTYbIu_MRNfqW-21">
          <mxGeometry relative="1" as="geometry" />
        </mxCell>
        <mxCell id="RL4k7RVcTYbIu_MRNfqW-10" value="delta&amp;gt;0" style="rhombus;whiteSpace=wrap;html=1;" vertex="1" parent="WIyWlLk6GJQsqaUBKTNV-1">
          <mxGeometry x="380" y="337.5" width="120" height="115" as="geometry" />
        </mxCell>
        <mxCell id="RL4k7RVcTYbIu_MRNfqW-27" style="edgeStyle=orthogonalEdgeStyle;rounded=0;orthogonalLoop=1;jettySize=auto;html=1;entryX=0;entryY=0.5;entryDx=0;entryDy=0;" edge="1" parent="WIyWlLk6GJQsqaUBKTNV-1" source="RL4k7RVcTYbIu_MRNfqW-11" target="RL4k7RVcTYbIu_MRNfqW-26">
          <mxGeometry relative="1" as="geometry" />
        </mxCell>
        <mxCell id="RL4k7RVcTYbIu_MRNfqW-11" value="vo nghiem" style="shape=parallelogram;perimeter=parallelogramPerimeter;whiteSpace=wrap;html=1;fixedSize=1;" vertex="1" parent="WIyWlLk6GJQsqaUBKTNV-1">
          <mxGeometry x="60" y="665" width="120" height="60" as="geometry" />
        </mxCell>
        <mxCell id="RL4k7RVcTYbIu_MRNfqW-28" style="edgeStyle=orthogonalEdgeStyle;rounded=0;orthogonalLoop=1;jettySize=auto;html=1;" edge="1" parent="WIyWlLk6GJQsqaUBKTNV-1" source="RL4k7RVcTYbIu_MRNfqW-12" target="RL4k7RVcTYbIu_MRNfqW-26">
          <mxGeometry relative="1" as="geometry" />
        </mxCell>
        <mxCell id="RL4k7RVcTYbIu_MRNfqW-12" value="2 nghiem" style="shape=parallelogram;perimeter=parallelogramPerimeter;whiteSpace=wrap;html=1;fixedSize=1;" vertex="1" parent="WIyWlLk6GJQsqaUBKTNV-1">
          <mxGeometry x="325" y="655" width="230" height="80" as="geometry" />
        </mxCell>
        <mxCell id="RL4k7RVcTYbIu_MRNfqW-15" value="start" style="ellipse;whiteSpace=wrap;html=1;" vertex="1" parent="WIyWlLk6GJQsqaUBKTNV-1">
          <mxGeometry x="354" y="10" width="120" height="80" as="geometry" />
        </mxCell>
        <mxCell id="RL4k7RVcTYbIu_MRNfqW-18" style="edgeStyle=orthogonalEdgeStyle;rounded=0;orthogonalLoop=1;jettySize=auto;html=1;entryX=0.592;entryY=-0.017;entryDx=0;entryDy=0;entryPerimeter=0;" edge="1" parent="WIyWlLk6GJQsqaUBKTNV-1" source="RL4k7RVcTYbIu_MRNfqW-15" target="RL4k7RVcTYbIu_MRNfqW-2">
          <mxGeometry relative="1" as="geometry" />
        </mxCell>
        <mxCell id="RL4k7RVcTYbIu_MRNfqW-19" value="delta&amp;nbsp;" style="rounded=0;whiteSpace=wrap;html=1;" vertex="1" parent="WIyWlLk6GJQsqaUBKTNV-1">
          <mxGeometry x="200" y="180" width="120" height="60" as="geometry" />
        </mxCell>
        <mxCell id="RL4k7RVcTYbIu_MRNfqW-25" style="edgeStyle=orthogonalEdgeStyle;rounded=0;orthogonalLoop=1;jettySize=auto;html=1;" edge="1" parent="WIyWlLk6GJQsqaUBKTNV-1" source="RL4k7RVcTYbIu_MRNfqW-21" target="RL4k7RVcTYbIu_MRNfqW-24">
          <mxGeometry relative="1" as="geometry" />
        </mxCell>
        <mxCell id="RL4k7RVcTYbIu_MRNfqW-21" value="delta = 0" style="rhombus;whiteSpace=wrap;html=1;" vertex="1" parent="WIyWlLk6GJQsqaUBKTNV-1">
          <mxGeometry x="630" y="340" width="130" height="115" as="geometry" />
        </mxCell>
        <mxCell id="RL4k7RVcTYbIu_MRNfqW-23" value="false" style="text;html=1;strokeColor=none;fillColor=none;align=center;verticalAlign=middle;whiteSpace=wrap;rounded=0;" vertex="1" parent="WIyWlLk6GJQsqaUBKTNV-1">
          <mxGeometry x="530" y="370" width="60" height="30" as="geometry" />
        </mxCell>
        <mxCell id="RL4k7RVcTYbIu_MRNfqW-24" value="no kÃ©p" style="shape=parallelogram;perimeter=parallelogramPerimeter;whiteSpace=wrap;html=1;fixedSize=1;" vertex="1" parent="WIyWlLk6GJQsqaUBKTNV-1">
          <mxGeometry x="600" y="655" width="180" height="85" as="geometry" />
        </mxCell>
        <mxCell id="RL4k7RVcTYbIu_MRNfqW-26" value="end" style="ellipse;whiteSpace=wrap;html=1;" vertex="1" parent="WIyWlLk6GJQsqaUBKTNV-1">
          <mxGeometry x="370" y="950" width="120" height="80" as="geometry" />
        </mxCell>
        <mxCell id="RL4k7RVcTYbIu_MRNfqW-29" style="edgeStyle=orthogonalEdgeStyle;rounded=0;orthogonalLoop=1;jettySize=auto;html=1;entryX=1.008;entryY=0.688;entryDx=0;entryDy=0;entryPerimeter=0;" edge="1" parent="WIyWlLk6GJQsqaUBKTNV-1" source="RL4k7RVcTYbIu_MRNfqW-24" target="RL4k7RVcTYbIu_MRNfqW-26">
          <mxGeometry relative="1" as="geometry" />
        </mxCell>
      </root>
    </mxGraphModel>
  </diagram>
  <diagram id="66EaAAsuDPIZyQyeGh26" name="Trang-2">
    <mxGraphModel dx="941" dy="644" grid="1" gridSize="10" guides="1" tooltips="1" connect="1" arrows="1" fold="1" page="1" pageScale="1" pageWidth="827" pageHeight="1169" math="0" shadow="0">
      <root>
        <mxCell id="0" />
        <mxCell id="1" parent="0" />
        <mxCell id="4BHMCLjPUEFYkq0pMM5N-3" style="edgeStyle=orthogonalEdgeStyle;rounded=0;orthogonalLoop=1;jettySize=auto;html=1;entryX=0.5;entryY=0;entryDx=0;entryDy=0;" edge="1" parent="1" source="4BHMCLjPUEFYkq0pMM5N-1" target="4BHMCLjPUEFYkq0pMM5N-2">
          <mxGeometry relative="1" as="geometry" />
        </mxCell>
        <mxCell id="4BHMCLjPUEFYkq0pMM5N-1" value="start" style="ellipse;whiteSpace=wrap;html=1;" vertex="1" parent="1">
          <mxGeometry x="354" y="30" width="120" height="80" as="geometry" />
        </mxCell>
        <mxCell id="4BHMCLjPUEFYkq0pMM5N-5" style="edgeStyle=orthogonalEdgeStyle;rounded=0;orthogonalLoop=1;jettySize=auto;html=1;entryX=0.5;entryY=0;entryDx=0;entryDy=0;" edge="1" parent="1" source="4BHMCLjPUEFYkq0pMM5N-2" target="4BHMCLjPUEFYkq0pMM5N-4">
          <mxGeometry relative="1" as="geometry" />
        </mxCell>
        <mxCell id="4BHMCLjPUEFYkq0pMM5N-2" value="doanh thu&amp;nbsp;" style="shape=parallelogram;perimeter=parallelogramPerimeter;whiteSpace=wrap;html=1;fixedSize=1;" vertex="1" parent="1">
          <mxGeometry x="354" y="190" width="120" height="60" as="geometry" />
        </mxCell>
        <mxCell id="4BHMCLjPUEFYkq0pMM5N-8" style="edgeStyle=orthogonalEdgeStyle;rounded=0;orthogonalLoop=1;jettySize=auto;html=1;entryX=0;entryY=0.5;entryDx=0;entryDy=0;" edge="1" parent="1" source="4BHMCLjPUEFYkq0pMM5N-4" target="4BHMCLjPUEFYkq0pMM5N-7">
          <mxGeometry relative="1" as="geometry" />
        </mxCell>
        <mxCell id="4BHMCLjPUEFYkq0pMM5N-12" style="edgeStyle=orthogonalEdgeStyle;rounded=0;orthogonalLoop=1;jettySize=auto;html=1;entryX=0.5;entryY=0;entryDx=0;entryDy=0;" edge="1" parent="1" source="4BHMCLjPUEFYkq0pMM5N-4" target="4BHMCLjPUEFYkq0pMM5N-9">
          <mxGeometry relative="1" as="geometry" />
        </mxCell>
        <mxCell id="4BHMCLjPUEFYkq0pMM5N-4" value="doanh thu =&amp;lt;100tr" style="rhombus;whiteSpace=wrap;html=1;" vertex="1" parent="1">
          <mxGeometry x="192" y="310" width="136" height="120" as="geometry" />
        </mxCell>
        <mxCell id="4BHMCLjPUEFYkq0pMM5N-18" style="edgeStyle=orthogonalEdgeStyle;rounded=0;orthogonalLoop=1;jettySize=auto;html=1;" edge="1" parent="1" source="4BHMCLjPUEFYkq0pMM5N-7" target="4BHMCLjPUEFYkq0pMM5N-17">
          <mxGeometry relative="1" as="geometry">
            <Array as="points">
              <mxPoint x="780" y="390" />
              <mxPoint x="780" y="1060" />
            </Array>
          </mxGeometry>
        </mxCell>
        <mxCell id="4BHMCLjPUEFYkq0pMM5N-7" value="hoa há»ng 5%" style="rounded=0;whiteSpace=wrap;html=1;" vertex="1" parent="1">
          <mxGeometry x="600" y="360" width="120" height="60" as="geometry" />
        </mxCell>
        <mxCell id="4BHMCLjPUEFYkq0pMM5N-11" style="edgeStyle=orthogonalEdgeStyle;rounded=0;orthogonalLoop=1;jettySize=auto;html=1;entryX=0;entryY=0.5;entryDx=0;entryDy=0;" edge="1" parent="1" source="4BHMCLjPUEFYkq0pMM5N-9" target="4BHMCLjPUEFYkq0pMM5N-10">
          <mxGeometry relative="1" as="geometry" />
        </mxCell>
        <mxCell id="4BHMCLjPUEFYkq0pMM5N-14" style="edgeStyle=orthogonalEdgeStyle;rounded=0;orthogonalLoop=1;jettySize=auto;html=1;" edge="1" parent="1" source="4BHMCLjPUEFYkq0pMM5N-9" target="4BHMCLjPUEFYkq0pMM5N-13">
          <mxGeometry relative="1" as="geometry" />
        </mxCell>
        <mxCell id="4BHMCLjPUEFYkq0pMM5N-9" value="doanh thu =&amp;lt;300tr" style="rhombus;whiteSpace=wrap;html=1;" vertex="1" parent="1">
          <mxGeometry x="180" y="480" width="156" height="140" as="geometry" />
        </mxCell>
        <mxCell id="4BHMCLjPUEFYkq0pMM5N-19" style="edgeStyle=orthogonalEdgeStyle;rounded=0;orthogonalLoop=1;jettySize=auto;html=1;" edge="1" parent="1" source="4BHMCLjPUEFYkq0pMM5N-10">
          <mxGeometry relative="1" as="geometry">
            <mxPoint x="780" y="580" as="targetPoint" />
          </mxGeometry>
        </mxCell>
        <mxCell id="4BHMCLjPUEFYkq0pMM5N-10" value="hoa há»ng 10%" style="rounded=0;whiteSpace=wrap;html=1;" vertex="1" parent="1">
          <mxGeometry x="600" y="550" width="120" height="60" as="geometry" />
        </mxCell>
        <mxCell id="4BHMCLjPUEFYkq0pMM5N-16" style="edgeStyle=orthogonalEdgeStyle;rounded=0;orthogonalLoop=1;jettySize=auto;html=1;entryX=0;entryY=0.5;entryDx=0;entryDy=0;" edge="1" parent="1" source="4BHMCLjPUEFYkq0pMM5N-13" target="4BHMCLjPUEFYkq0pMM5N-15">
          <mxGeometry relative="1" as="geometry" />
        </mxCell>
        <mxCell id="4BHMCLjPUEFYkq0pMM5N-13" value="doanh thu &amp;gt;= 300tr" style="rhombus;whiteSpace=wrap;html=1;" vertex="1" parent="1">
          <mxGeometry x="150" y="670" width="220" height="170" as="geometry" />
        </mxCell>
        <mxCell id="4BHMCLjPUEFYkq0pMM5N-20" style="edgeStyle=orthogonalEdgeStyle;rounded=0;orthogonalLoop=1;jettySize=auto;html=1;" edge="1" parent="1" source="4BHMCLjPUEFYkq0pMM5N-15">
          <mxGeometry relative="1" as="geometry">
            <mxPoint x="780" y="750" as="targetPoint" />
          </mxGeometry>
        </mxCell>
        <mxCell id="4BHMCLjPUEFYkq0pMM5N-15" value="hoa há»ng 20%" style="rounded=0;whiteSpace=wrap;html=1;" vertex="1" parent="1">
          <mxGeometry x="600" y="720" width="120" height="60" as="geometry" />
        </mxCell>
        <mxCell id="4BHMCLjPUEFYkq0pMM5N-17" value="end" style="ellipse;whiteSpace=wrap;html=1;" vertex="1" parent="1">
          <mxGeometry x="400" y="1020" width="120" height="80" as="geometry" />
        </mxCell>
      </root>
    </mxGraphModel>
  </diagram>
</mxfile>
